<svg width="379" height="361" viewBox="0 0 379 361" fill="none" xmlns="http://www.w3.org/2000/svg">
<path fill-rule="evenodd" clip-rule="evenodd" d="M132.616 339.641C178.682 329.979 218.691 308.82 258.497 283.698C301.418 256.609 354.231 235.731 372.377 188.325C390.775 140.261 366.508 88.4892 352.135 39.0711C337.246 -12.1229 329.917 -70.5239 287.646 -103.007C245.026 -135.759 186.322 -131.739 132.616 -129.62C80.9348 -127.58 29.0369 -120.141 -13.7729 -91.1118C-57.534 -61.4372 -90.071 -17.5586 -106.676 32.6454C-123.342 83.0371 -117.361 136.115 -106.081 187.979C-93.6 245.361 -88.0808 314.51 -38.5214 345.999C10.8717 377.382 75.3448 351.654 132.616 339.641Z" fill="#EBEEFA" fill-opacity="0.5"/>
</svg>
